
<svg width="64px" height="52px" viewBox="0 0 64 52" version="1.1" xmlns="http://www.w3.org/2000/svg" xmlns:xlink="http://www.w3.org/1999/xlink">
    <!-- Generator: Sketch 50 (54983) - http://www.bohemiancoding.com/sketch -->
    <desc>Created with Sketch.</desc>
    <defs>
        <filter x="-18.3%" y="-21.2%" width="136.5%" height="147.5%" filterUnits="objectBoundingBox" id="filter-1">
            <feOffset dx="0" dy="1" in="SourceAlpha" result="shadowOffsetOuter1"></feOffset>
            <feGaussianBlur stdDeviation="3" in="shadowOffsetOuter1" result="shadowBlurOuter1"></feGaussianBlur>
            <feColorMatrix values="0 0 0 0 0   0 0 0 0 0   0 0 0 0 0  0 0 0 0.5 0" type="matrix" in="shadowBlurOuter1" result="shadowMatrixOuter1"></feColorMatrix>
            <feMerge>
                <feMergeNode in="shadowMatrixOuter1"></feMergeNode>
                <feMergeNode in="SourceGraphic"></feMergeNode>
            </feMerge>
        </filter>
        <path d="M0.00123761679,2.79470132 C0.000418440563,2.76748089 0,2.74062111 0,2.7141393 C0,0.86481034 1.09729879,0 2.86232158,0 C17.1131083,0 23.9998993,17.1905396 24,17.1904371 L24,18.4243018 L24,19 L26,19 C26,19 26,24.5052684 26,26.3029569 C26,29.2803022 24.3265143,33.7932579 23.386463,35.1039537 C22.2135202,36.7395488 21.186569,35.8156575 19.6823846,37.8754241 C18.4954356,39.5008375 16.9748936,40.5719569 15.1698314,39.6731126 C15.1698314,39.6731126 12.5375854,40.309777 11.5598093,37.8754241 C11.5598093,37.8754241 9.45405386,36.9074996 8.88755912,33.9719069 C8.84420252,33.9907396 8.82174311,34 8.82174311,34 C8.82174311,34 5.96277015,30.7582484 6.0003676,27.4611513 C5.99547008,27.0369471 6.03929323,26.6111116 6.14482725,26.1906523 C6.51820065,24.7030911 8.12755835,23.2155473 9.88622606,21.9826518 C7.44115832,22.0561583 5.42821689,21.9064585 4.64015239,21.3333616 C1.97337384,19.394025 3.75119264,12.6060723 1.08441409,6.78784285 C0.360598648,5.20858246 0,3.87878304 0,2.90894997 C0,2.87046969 0.000413586731,2.83238712 0.00123761679,2.79470132 Z M49.0613511,0.00016515101 C49.0867641,5.51246378e-05 49.1122005,8.66588096e-09 49.1376604,1.02182153e-12 C50.9027952,1.96110416e-06 52,0.864709947 52,2.7141393 C51.9999951,2.7180612 52,2.72198749 52,2.72591821 C52,2.74415444 51.9998548,2.76252649 51.9995644,2.78103351 C51.9998546,2.80264842 52,2.82439455 52,2.84627207 C52,3.7824185 51.6309847,5.0636816 50.8971498,6.58161456 C50.8806981,6.55502421 50.8641163,6.52860901 50.8474057,6.50236896 C48.2792173,11.9225483 50.0035691,18.1894614 47.3598476,19.9910619 C46.4116455,20.637264 43.6901899,20.9029192 40.5763552,20.9769474 C40.7227509,21.067668 40.8703997,21.1607919 41.0186518,21.2561629 C43.157798,22.6033864 45.404947,24.3970067 45.855146,26.1906523 C45.9606996,26.6111303 46.0045305,27.0369882 45.9996324,27.4612163 C46.0372314,30.7582254 43.1782344,34 43.1782344,34 C43.1782344,34 43.1557748,33.9907395 43.1124179,33.9719066 C42.545924,36.9074995 40.4401713,37.8754241 40.4401713,37.8754241 C39.4623965,40.309777 36.830154,39.6731126 36.830154,39.6731126 C35.0250943,40.5719569 33.5045543,39.5008375 32.3176069,37.8754241 C31.5793525,36.8644884 30.9560567,36.5722733 30.3740375,36.3434295 C29.7493393,36.1457295 29.1623562,35.9121491 28.6544097,35.2103256 C27.6996197,33.8908698 26,29.348207 26,26.3511954 L26,26.3029569 L26,19 L27,19 L27,18.0274288 C27,18.0274288 34.1737708,0 49.0185074,0 C49.032831,0 49.0471123,5.50305032e-05 49.0613511,0.00016515101 Z M28,18.8352351 C27.9739645,18.8904492 27.9482109,18.9453741 27.9227381,19 L28,19 L28,18.8352351 Z" id="path-2"></path>
    </defs>
    <g id="Page-1" stroke="none" stroke-width="1" fill="none" fill-rule="evenodd">
        <g id="Group-3" filter="url(#filter-1)" transform="translate(6.000000, 5.000000)">
            <mask id="mask-3" fill="white">
                <use xlink:href="#path-2"></use>
            </mask>
            <use id="Mask" fill="#6EB4F0" fill-rule="nonzero" xlink:href="#path-2"></use>
            <g mask="url(#mask-3)">
                <g transform="translate(-14.000000, -6.000000)">
                    <rect id="Rectangle-Copy-78" fill="#DFAA83" x="48" y="0" width="24" height="24"></rect>
                    <rect id="Rectangle-Copy-180" fill="#E6898B" x="0" y="24" width="24" height="24"></rect>
                    <rect id="Rectangle-Copy-179" fill="#61B1A2" x="24" y="24" width="24" height="24"></rect>
                    <rect id="Rectangle-Copy-177" fill="#61B1A2" x="0" y="0" width="24" height="24"></rect>
                    <rect id="Rectangle-Copy-178" fill="#D58266" x="24" y="0" width="24" height="24"></rect>
                    <rect id="Rectangle-Copy-187" fill="#BB8F9D" x="48" y="24" width="24" height="24"></rect>
                </g>
            </g>
        </g>
    </g>
</svg>