
<svg width="101px" height="81px" viewBox="0 0 101 81" version="1.1" xmlns="http://www.w3.org/2000/svg" xmlns:xlink="http://www.w3.org/1999/xlink">
    <!-- Generator: Sketch 50 (54983) - http://www.bohemiancoding.com/sketch -->
    <desc>Created with Sketch.</desc>
    <defs>
        <filter x="-10.7%" y="-12.3%" width="121.3%" height="127.5%" filterUnits="objectBoundingBox" id="filter-1">
            <feOffset dx="0" dy="1" in="SourceAlpha" result="shadowOffsetOuter1"></feOffset>
            <feGaussianBlur stdDeviation="3" in="shadowOffsetOuter1" result="shadowBlurOuter1"></feGaussianBlur>
            <feColorMatrix values="0 0 0 0 0   0 0 0 0 0   0 0 0 0 0  0 0 0 0.5 0" type="matrix" in="shadowBlurOuter1" result="shadowMatrixOuter1"></feColorMatrix>
            <feMerge>
                <feMergeNode in="shadowMatrixOuter1"></feMergeNode>
                <feMergeNode in="SourceGraphic"></feMergeNode>
            </feMerge>
        </filter>
        <path d="M0.00211822873,4.78323881 C0.000716177118,4.73664998 0,4.69067844 0,4.6453538 C0,1.48015616 1.87806909,0 4.89897347,0 C29.289743,0 41.0767507,29.4222698 41.0769231,29.4220943 L41.0769231,31.5339012 L41.0769231,32.5192308 L44.5,32.5192308 C44.5,32.5192308 44.5,41.9417094 44.5,45.0185224 C44.5,50.1143633 41.6357649,57.8384606 40.0268309,60.0817668 C38.0192941,62.8811509 36.2616278,61.2998753 33.6871583,64.825245 C31.6556494,67.6072027 29.0531833,69.4404646 25.9637499,67.9020581 C25.9637499,67.9020581 21.4585596,68.9917337 19.7850582,64.825245 C19.7850582,64.825245 16.1809768,63.1686051 15.2113993,58.1442253 C15.1371928,58.1764581 15.0987526,58.1923077 15.0987526,58.1923077 C15.0987526,58.1923077 10.2055105,52.6439252 10.2698599,47.0008166 C10.2614776,46.2747749 10.3364826,45.5459409 10.5171082,44.8263087 C11.1561511,42.2802905 13.9106287,39.7343021 16.9206561,37.6241541 C12.7358287,37.7499633 9.29060199,37.4937462 7.94179928,36.5128689 C3.37750522,33.1936198 6.42031048,21.5757776 1.85601642,11.6176541 C0.617178455,8.91468921 0,6.63868635 0,4.97877976 C0,4.91291928 0.000707869597,4.8477395 0.00211822873,4.78323881 Z M83.9703895,0.000282662304 C84.0138847,9.43479375e-05 84.0574201,1.48319886e-08 84.1009957,1.74888686e-12 C87.1220918,3.35650522e-06 89,1.47998433 89,4.6453538 C88.9999916,4.65206629 89,4.65878629 89,4.66551387 C89,4.69672587 88.9997515,4.72817033 88.9992545,4.75984582 C88.9997511,4.79684057 89,4.8340599 89,4.87150413 C89,6.47375475 88.3684161,8.66668582 87.1124295,11.2646865 C87.0842718,11.219176 87.0558914,11.1739654 87.0272906,11.1290546 C82.6317373,20.4058999 85.5830317,31.1319627 81.0582007,34.2154714 C79.4353163,35.3214711 74.7774404,35.7761501 69.4479925,35.9028523 C69.6985545,36.0581241 69.9512611,36.2175093 70.2050003,36.3807404 C73.8662311,38.6865651 77.7123131,41.7564152 78.4828461,44.8263087 C78.663505,45.5459731 78.7385234,46.2748453 78.73014,47.0009279 C78.7944922,52.6438858 73.9012089,58.1923077 73.9012089,58.1923077 C73.9012089,58.1923077 73.8627685,58.176458 73.7885614,58.1442248 C72.8189853,63.168605 69.2149085,64.825245 69.2149085,64.825245 C67.5414094,68.9917337 63.0362251,67.9020581 63.0362251,67.9020581 C59.9467959,69.4404646 57.3443333,67.6072027 55.3128271,64.825245 C54.0492764,63.0949898 52.9824817,62.5948523 51.9863334,62.2031775 C50.9171384,61.8648063 49.9124942,61.4650244 49.0431244,60.2638265 C47.4089645,58.0055271 44.5,50.230585 44.5,45.1010844 L44.5,45.0185224 L44.5,32.5192308 L46.2115385,32.5192308 L46.2115385,30.8546377 C46.2115385,30.8546377 58.489723,0 83.8970608,0 C83.9215761,0 83.9460191,9.41868228e-05 83.9703895,0.000282662305 Z M47.9230769,32.2372293 C47.8785161,32.3317303 47.8344378,32.4257364 47.7908402,32.5192308 L47.9230769,32.5192308 L47.9230769,32.2372293 Z" id="path-2"></path>
    </defs>
    <g id="Page-1" stroke="none" stroke-width="1" fill="none" fill-rule="evenodd">
        <g id="Group-2" filter="url(#filter-1)" transform="translate(6.000000, 5.000000)">
            <mask id="mask-3" fill="white">
                <use xlink:href="#path-2"></use>
            </mask>
            <use id="Mask" fill="#6EB4F0" fill-rule="nonzero" xlink:href="#path-2"></use>
            <g mask="url(#mask-3)">
                <g transform="translate(-16.000000, -14.000000)">
                    <rect id="Rectangle-Copy-171" fill="#E6898B" x="24" y="48" width="24" height="24"></rect>
                    <rect id="Rectangle-Copy-192" fill="#E6898B" x="96" y="0" width="24" height="24"></rect>
                    <rect id="Rectangle-Copy-172" fill="#61B1A2" x="0" y="24" width="24" height="24"></rect>
                    <rect id="Rectangle-Copy-182" fill="#61B1A2" x="72" y="72" width="24" height="24"></rect>
                    <rect id="Rectangle-Copy-183" fill="#61B1A2" x="24" y="72" width="24" height="24"></rect>
                    <rect id="Rectangle-Copy-186" fill="#61B1A2" x="48" y="24" width="24" height="24"></rect>
                    <rect id="Rectangle-Copy-191" fill="#61B1A2" x="24" y="0" width="24" height="24"></rect>
                    <rect id="Rectangle-Copy-173" fill="#F6D2B3" x="0" y="48" width="24" height="24"></rect>
                    <rect id="Rectangle-Copy-189" fill="#F6D2B3" x="72" y="48" width="24" height="24"></rect>
                    <rect id="Rectangle-Copy-181" fill="#8EC3B6" x="48" y="48" width="24" height="24"></rect>
                    <rect id="Rectangle-Copy-175" fill="#D58266" x="72" y="24" width="24" height="24"></rect>
                    <rect id="Rectangle-Copy-188" fill="#D58266" x="96" y="24" width="24" height="24"></rect>
                    <rect id="Rectangle-Copy-190" fill="#D58266" x="0" y="0" width="24" height="24"></rect>
                    <rect id="Rectangle-Copy-176" fill="#BB8F9D" x="72" y="0" width="24" height="24"></rect>
                    <rect id="Rectangle-Copy-184" fill="#BB8F9D" x="24" y="24" width="24" height="24"></rect>
                    <rect id="Rectangle-Copy-185" fill="#BB8F9D" x="48" y="72" width="24" height="24"></rect>
                </g>
            </g>
        </g>
    </g>
</svg>