
<svg width="406px" height="432px" viewBox="0 0 406 432" version="1.1" xmlns="http://www.w3.org/2000/svg" xmlns:xlink="http://www.w3.org/1999/xlink">
    <!-- Generator: Sketch 50 (54983) - http://www.bohemiancoding.com/sketch -->
    <desc>Created with Sketch.</desc>
    <defs>
        <filter x="-2.3%" y="-2.1%" width="104.7%" height="104.4%" filterUnits="objectBoundingBox" id="filter-1">
            <feOffset dx="0" dy="0.5" in="SourceAlpha" result="shadowOffsetOuter1"></feOffset>
            <feGaussianBlur stdDeviation="3" in="shadowOffsetOuter1" result="shadowBlurOuter1"></feGaussianBlur>
            <feColorMatrix values="0 0 0 0 0   0 0 0 0 0   0 0 0 0 0  0 0 0 0.5 0" type="matrix" in="shadowBlurOuter1" result="shadowMatrixOuter1"></feColorMatrix>
            <feMerge>
                <feMergeNode in="shadowMatrixOuter1"></feMergeNode>
                <feMergeNode in="SourceGraphic"></feMergeNode>
            </feMerge>
        </filter>
        <polygon id="path-2" points="117.35504 419.740267 110.35504 414.740267 106.35504 406.740267 102.35504 393.740267 100.35504 385.740267 100.35504 376.740267 96.3550397 369.740267 90.3550397 359.740267 85.3550397 353.740267 83.3550397 351.740267 83.3550397 341.740267 79.3550397 328.740267 74.3550397 318.740267 71.3550397 306.740267 64.3550397 297.740267 64.3550397 284.740267 62.3550397 274.740267 60.3550397 262.740267 60.3550397 249.740267 58.3550397 246.740267 58.3550397 241.740267 55.3550397 237.740267 58.3550397 231.740267 60.3550397 227.740267 62.3550397 227.740267 60.3550397 222.740267 60.3550397 217.740267 62.3550397 213.740267 58.3550397 211.740267 58.3550397 208.740267 58.3550397 203.740267 52.3550397 208.740267 52.3550397 213.740267 52.3550397 217.740267 47.3550397 220.740267 40.3550397 224.740267 32.3550397 224.740267 24.3550397 220.740267 18.3550397 213.740267 14.3550397 208.740267 14.3550397 206.740267 9.35503967 200.740267 9.35503967 197.740267 12.3550397 197.740267 21.3550397 200.740267 24.3550397 200.740267 27.3550397 197.740267 27.3550397 193.740267 27.3550397 190.740267 24.3550397 190.740267 14.3550397 190.740267 9.35503967 186.740267 5.35503967 183.740267 2.35503967 179.740267 0.355039671 175.740267 5.35503967 172.740267 14.3550397 170.740267 21.3550397 172.740267 24.3550397 172.740267 30.3550397 168.740267 32.3550397 168.740267 35.3550397 170.740267 38.3550397 170.740267 40.3550397 168.740267 38.3550397 160.740267 35.3550397 154.740267 32.3550397 154.740267 30.3550397 150.740267 27.3550397 143.740267 30.3550397 138.740267 24.3550397 134.740267 18.3550397 134.740267 24.3550397 127.740267 27.3550397 122.740267 27.3550397 119.740267 35.3550397 117.740267 42.3550397 119.740267 44.3550397 122.740267 49.3550397 119.740267 52.3550397 117.740267 58.3550397 109.740267 62.3550397 107.740267 71.3550397 98.740267 77.3550397 92.740267 81.3550397 87.740267 85.3550397 87.740267 85.3550397 81.740267 88.3550397 78.740267 90.3550397 78.740267 93.3550397 69.740267 93.3550397 64.740267 100.35504 59.740267 102.35504 57.740267 98.3550397 52.740267 93.3550397 48.740267 90.3550397 43.740267 88.3550397 35.740267 85.3550397 25.740267 88.3550397 18.740267 113.35504 18.740267 124.35504 15.740267 133.35504 10.740267 138.35504 7.74026702 143.35504 4.74026702 145.35504 0.740267021 155.35504 0.740267021 162.35504 4.74026702 167.35504 7.74026702 165.35504 20.740267 162.35504 25.740267 159.35504 30.740267 153.35504 33.740267 150.35504 35.740267 155.35504 43.740267 159.35504 48.740267 159.35504 52.740267 159.35504 57.740267 155.35504 59.740267 150.35504 57.740267 147.35504 48.740267 145.35504 52.740267 147.35504 59.740267 147.35504 69.740267 155.35504 71.740267 162.35504 74.740267 165.35504 81.740267 171.35504 81.740267 177.35504 87.740267 177.35504 94.740267 165.35504 107.740267 180.35504 117.740267 187.35504 122.740267 195.35504 122.740267 203.35504 129.740267 217.35504 129.740267 224.35504 131.740267 226.35504 134.740267 228.35504 138.740267 250.35504 143.740267 266.35504 143.740267 273.35504 141.740267 271.35504 129.740267 271.35504 122.740267 276.35504 119.740267 281.35504 125.740267 284.35504 134.740267 291.35504 138.740267 313.35504 136.740267 322.35504 136.740267 322.35504 129.740267 320.35504 122.740267 328.35504 117.740267 331.35504 116.740267 337.35504 111.740267 345.35504 103.740267 351.35504 98.740267 356.35504 95.740267 366.35504 97.740267 370.35504 97.740267 374.35504 91.740267 378.35504 92.740267 381.35504 95.740267 381.35504 99.740267 381.35504 105.740267 385.35504 106.740267 389.35504 106.740267 394.35504 107.740267 394.35504 111.740267 394.35504 117.740267 391.35504 121.740267 390.35504 124.740267 385.35504 124.740267 382.35504 125.740267 379.35504 128.740267 374.35504 130.740267 368.35504 135.740267 367.35504 145.740267 364.35504 151.740267 360.35504 155.740267 362.35504 158.740267 362.35504 164.740267 360.35504 164.740267 359.35504 173.740267 356.35504 175.740267 352.35504 176.740267 346.35504 176.740267 350.35504 182.740267 349.35504 186.740267 346.35504 188.740267 343.35504 191.740267 346.35504 197.740267 344.35504 204.740267 340.35504 206.740267 336.35504 205.740267 333.35504 203.740267 334.35504 196.740267 334.35504 191.740267 330.35504 186.740267 326.35504 185.740267 321.35504 187.740267 317.35504 188.740267 313.35504 183.740267 313.35504 177.740267 316.35504 172.740267 321.35504 170.740267 328.35504 168.740267 329.35504 163.740267 308.35504 164.740267 302.35504 162.740267 298.35504 160.740267 297.35504 154.740267 293.35504 151.740267 288.35504 149.740267 284.35504 146.740267 282.35504 145.740267 279.35504 145.740267 276.35504 146.740267 275.35504 149.740267 277.35504 152.740267 281.35504 154.740267 283.35504 157.740267 283.35504 161.740267 281.35504 163.740267 278.35504 164.740267 274.35504 169.740267 275.35504 173.740267 279.35504 175.740267 285.35504 177.740267 285.35504 181.740267 283.35504 183.740267 283.35504 186.740267 285.35504 192.740267 287.35504 197.740267 287.35504 201.740267 287.35504 208.740267 286.35504 213.740267 284.35504 215.740267 280.35504 217.740267 275.35504 216.740267 273.35504 214.740267 269.35504 214.740267 265.35504 216.740267 262.35504 220.740267 262.35504 226.740267 260.35504 231.740267 257.35504 237.740267 251.35504 242.740267 246.35504 246.740267 241.35504 246.740267 238.35504 247.740267 234.35504 250.740267 230.35504 255.740267 228.35504 260.740267 225.35504 263.740267 221.35504 268.740267 216.35504 270.740267 211.35504 273.740267 208.35504 275.740267 207.35504 278.740267 203.35504 282.740267 199.35504 282.740267 198.35504 287.740267 194.35504 295.740267 189.35504 295.740267 184.35504 297.740267 179.35504 300.740267 175.35504 303.740267 170.35504 304.740267 164.35504 305.740267 162.35504 311.740267 163.35504 316.740267 164.35504 323.740267 163.35504 328.740267 162.35504 334.740267 165.35504 338.740267 165.35504 344.740267 164.35504 349.740267 163.35504 354.740267 161.35504 357.740267 160.35504 361.740267 160.35504 365.740267 158.35504 367.740267 156.35504 369.740267 157.35504 374.740267 159.35504 379.740267 158.35504 384.740267 155.35504 385.740267 152.35504 387.740267 148.35504 389.740267 143.35504 394.740267 144.35504 397.740267 147.35504 399.740267 148.35504 401.740267 147.35504 404.740267 143.35504 404.740267 140.35504 406.740267 137.35504 407.740267 134.35504 408.740267 133.35504 410.740267 131.35504 411.740267 128.35504 414.740267 126.35504 416.740267 122.35504 419.740267"></polygon>
        <polygon id="path-4" points="117.35504 419.740267 110.35504 414.740267 106.35504 406.740267 102.35504 393.740267 100.35504 385.740267 100.35504 376.740267 96.3550397 369.740267 90.3550397 359.740267 85.3550397 353.740267 83.3550397 351.740267 83.3550397 341.740267 79.3550397 328.740267 74.3550397 318.740267 71.3550397 306.740267 64.3550397 297.740267 64.3550397 284.740267 62.3550397 274.740267 60.3550397 262.740267 60.3550397 249.740267 58.3550397 246.740267 58.3550397 241.740267 55.3550397 237.740267 58.3550397 231.740267 60.3550397 227.740267 62.3550397 227.740267 60.3550397 222.740267 60.3550397 217.740267 62.3550397 213.740267 58.3550397 211.740267 58.3550397 208.740267 58.3550397 203.740267 52.3550397 208.740267 52.3550397 213.740267 52.3550397 217.740267 47.3550397 220.740267 40.3550397 224.740267 32.3550397 224.740267 24.3550397 220.740267 18.3550397 213.740267 14.3550397 208.740267 14.3550397 206.740267 9.35503967 200.740267 9.35503967 197.740267 12.3550397 197.740267 21.3550397 200.740267 24.3550397 200.740267 27.3550397 197.740267 27.3550397 193.740267 27.3550397 190.740267 24.3550397 190.740267 14.3550397 190.740267 9.35503967 186.740267 5.35503967 183.740267 2.35503967 179.740267 0.355039671 175.740267 5.35503967 172.740267 14.3550397 170.740267 21.3550397 172.740267 24.3550397 172.740267 30.3550397 168.740267 32.3550397 168.740267 35.3550397 170.740267 38.3550397 170.740267 40.3550397 168.740267 38.3550397 160.740267 35.3550397 154.740267 32.3550397 154.740267 30.3550397 150.740267 27.3550397 143.740267 30.3550397 138.740267 24.3550397 134.740267 18.3550397 134.740267 24.3550397 127.740267 27.3550397 122.740267 27.3550397 119.740267 35.3550397 117.740267 42.3550397 119.740267 44.3550397 122.740267 49.3550397 119.740267 52.3550397 117.740267 58.3550397 109.740267 62.3550397 107.740267 71.3550397 98.740267 77.3550397 92.740267 81.3550397 87.740267 85.3550397 87.740267 85.3550397 81.740267 88.3550397 78.740267 90.3550397 78.740267 93.3550397 69.740267 93.3550397 64.740267 100.35504 59.740267 102.35504 57.740267 98.3550397 52.740267 93.3550397 48.740267 90.3550397 43.740267 88.3550397 35.740267 85.3550397 25.740267 88.3550397 18.740267 113.35504 18.740267 124.35504 15.740267 133.35504 10.740267 138.35504 7.74026702 143.35504 4.74026702 145.35504 0.740267021 155.35504 0.740267021 162.35504 4.74026702 167.35504 7.74026702 165.35504 20.740267 162.35504 25.740267 159.35504 30.740267 153.35504 33.740267 150.35504 35.740267 155.35504 43.740267 159.35504 48.740267 159.35504 52.740267 159.35504 57.740267 155.35504 59.740267 150.35504 57.740267 147.35504 48.740267 145.35504 52.740267 147.35504 59.740267 147.35504 69.740267 155.35504 71.740267 162.35504 74.740267 165.35504 81.740267 171.35504 81.740267 177.35504 87.740267 177.35504 94.740267 165.35504 107.740267 180.35504 117.740267 187.35504 122.740267 195.35504 122.740267 203.35504 129.740267 217.35504 129.740267 224.35504 131.740267 226.35504 134.740267 228.35504 138.740267 250.35504 143.740267 266.35504 143.740267 273.35504 141.740267 271.35504 129.740267 271.35504 122.740267 276.35504 119.740267 281.35504 125.740267 284.35504 134.740267 291.35504 138.740267 313.35504 136.740267 322.35504 136.740267 322.35504 129.740267 320.35504 122.740267 328.35504 117.740267 331.35504 116.740267 337.35504 111.740267 345.35504 103.740267 351.35504 98.740267 356.35504 95.740267 366.35504 97.740267 370.35504 97.740267 374.35504 91.740267 378.35504 92.740267 381.35504 95.740267 381.35504 99.740267 381.35504 105.740267 385.35504 106.740267 389.35504 106.740267 394.35504 107.740267 394.35504 111.740267 394.35504 117.740267 391.35504 121.740267 390.35504 124.740267 385.35504 124.740267 382.35504 125.740267 379.35504 128.740267 374.35504 130.740267 368.35504 135.740267 367.35504 145.740267 364.35504 151.740267 360.35504 155.740267 362.35504 158.740267 362.35504 164.740267 360.35504 164.740267 359.35504 173.740267 356.35504 175.740267 352.35504 176.740267 346.35504 176.740267 350.35504 182.740267 349.35504 186.740267 346.35504 188.740267 343.35504 191.740267 346.35504 197.740267 344.35504 204.740267 340.35504 206.740267 336.35504 205.740267 333.35504 203.740267 334.35504 196.740267 334.35504 191.740267 330.35504 186.740267 326.35504 185.740267 321.35504 187.740267 317.35504 188.740267 313.35504 183.740267 313.35504 177.740267 316.35504 172.740267 321.35504 170.740267 328.35504 168.740267 329.35504 163.740267 308.35504 164.740267 302.35504 162.740267 298.35504 160.740267 297.35504 154.740267 293.35504 151.740267 288.35504 149.740267 284.35504 146.740267 282.35504 145.740267 279.35504 145.740267 276.35504 146.740267 275.35504 149.740267 277.35504 152.740267 281.35504 154.740267 283.35504 157.740267 283.35504 161.740267 281.35504 163.740267 278.35504 164.740267 274.35504 169.740267 275.35504 173.740267 279.35504 175.740267 285.35504 177.740267 285.35504 181.740267 283.35504 183.740267 283.35504 186.740267 285.35504 192.740267 287.35504 197.740267 287.35504 201.740267 287.35504 208.740267 286.35504 213.740267 284.35504 215.740267 280.35504 217.740267 275.35504 216.740267 273.35504 214.740267 269.35504 214.740267 265.35504 216.740267 262.35504 220.740267 262.35504 226.740267 260.35504 231.740267 257.35504 237.740267 251.35504 242.740267 246.35504 246.740267 241.35504 246.740267 238.35504 247.740267 234.35504 250.740267 230.35504 255.740267 228.35504 260.740267 225.35504 263.740267 221.35504 268.740267 216.35504 270.740267 211.35504 273.740267 208.35504 275.740267 207.35504 278.740267 203.35504 282.740267 199.35504 282.740267 198.35504 287.740267 194.35504 295.740267 189.35504 295.740267 184.35504 297.740267 179.35504 300.740267 175.35504 303.740267 170.35504 304.740267 164.35504 305.740267 162.35504 311.740267 163.35504 316.740267 164.35504 323.740267 163.35504 328.740267 162.35504 334.740267 165.35504 338.740267 165.35504 344.740267 164.35504 349.740267 163.35504 354.740267 161.35504 357.740267 160.35504 361.740267 160.35504 365.740267 158.35504 367.740267 156.35504 369.740267 157.35504 374.740267 159.35504 379.740267 158.35504 384.740267 155.35504 385.740267 152.35504 387.740267 148.35504 389.740267 143.35504 394.740267 144.35504 397.740267 147.35504 399.740267 148.35504 401.740267 147.35504 404.740267 143.35504 404.740267 140.35504 406.740267 137.35504 407.740267 134.35504 408.740267 133.35504 410.740267 131.35504 411.740267 128.35504 414.740267 126.35504 416.740267 122.35504 419.740267"></polygon>
    </defs>
    <g id="Page-1" stroke="none" stroke-width="1" fill="none" fill-rule="evenodd">
        <g id="Group" filter="url(#filter-1)" transform="translate(5.000000, 5.000000)">
            <g id="Rectangle-+-Rectangle-Copy-26-+-Rectangle-Copy-15-+-Rectangle-Copy-82-+-Rectangle-Copy-110-+-Rectangle-Copy-103-+-Rectangle-Copy-126-+-Rectangle-Copy-120-+-Rectangle-Copy-20-+-Rectangle-Copy-27-+-Rectangle-Copy-58-+-Rectangle-Copy-66-+-Rectangle-Copy-9-+-Rectangle-Copy-14-+-Rectangle-Copy-143-+-Rectangle-Copy-144-+-Rectangle-Copy-36-+-Rectangle-+-Rectangle-Copy-83-+-Rectangle-Copy-+-Rectangle-Copy-84-+-Rectangle-Copy-31-+-Rectangle-Copy-69-+-Rectangle-Copy-2-+-Rectangle-Copy-34-+-Rectangle-Copy-35-+-Rectangle-Copy-62-+-Rectangle-Copy-105-+-Rectangle-Copy-137-+-Rectangle-Copy-123-+-Rectangle-Copy-8-+-Rectangle-Copy-93-+-Rectangle-Copy-6-+-Rectangle-Copy-89-+-Rectangle-Copy-33-+-Rectangle-Copy-97-+-Rectangle-Copy-139-+-Rectangle-Copy-140-+-Rectangle-Copy-42-+-Rectangle-Copy-19-+-Rectangle-Copy-52-+-Rectangle-Copy-48-+-Rectangle-Copy-45-+-Rectangle-Copy-64-+-Rectangle-Copy-71-+-Rectangle-Copy-113-+-Rectangle-Copy-50-+-Rectangle-Copy-23-+-Rectangle-Copy-39-+-Rectangle-Copy-41-+-Rectangle-Copy-68-+-Rectangle-Copy-112-+-Rectangle-Copy-60-+-Rectangle-Copy-10-+-Rectangle-Copy-7-+-Rectangle-Copy-88-+-Rectangle-Copy-55-+-Rectangle-Copy-46-+-Rectangle-Copy-11-+-Rectangle-Copy-32-+-Rectangle-Copy-95-+-Rectangle-Copy-134-+-Rectangle-Copy-100-+-Rectangle-Copy-145-+-Rectangle-Copy-147-+-Rectangle-Copy-37-+-Rectangle-Copy-61-+-Rectangle-Copy-43-+-Rectangle-Copy-44-+-Rectangle-Copy-49-+-Rectangle-Copy-63-+-Rectangle-Copy-72-+-Rectangle-Copy-70-+-Rectangle-Copy-81-+-Rectangle-Copy-111-+-Rectangle-Copy-121-+-Rectangle-Copy-122-+-Rectangle-Copy-25-+-Rectangle-Copy-3-+-Rectangle-Copy-38-+-Rectangle-Copy-99-+-Rectangle-Copy-67-+-Rectangle-Copy-142-+-Rectangle-Copy-146-+-Rectangle-Copy-80-+-Rectangle-Copy-108-+-Rectangle-Copy-4-+-Rectangle-Copy-13-+-Rectangle-Copy-53-+-Rectangle-Copy-22-+-Rectangle-Copy-47-+-Rectangle-Copy-24-+-Rectangle-Copy-59-+-Rectangle-Copy-74-+-Rectangle-Copy-75-+-Rectangle-Copy-76-+-Rectangle-Copy-77-+-Rectangle-Copy-65-+-Rectangle-Copy-40-+-Rectangle-Copy-17-+-Rectangle-Copy-18-+-Rectangle-Copy-91-+-Rectangle-Copy-87-+-Rectangle-Copy-92-+-Rectangle-Copy-56-+-Rectangle-Copy-127-+-Rectangle-Copy-128-+-Rectangle-Copy-129-+-Rectangle-Copy-130-+-Rectangle-Copy-57-+-Rectangle-Copy-29-+-Rectangle-Copy-96-+-Rectangle-Copy-101-+-Rectangle-Copy-102-+-Rectangle-Copy-98-+-Rectangle-Copy-131-+-Rectangle-Copy-132-+-Rectangle-Copy-148-+-Rectangle-Copy-141-+-Rectangle-Copy-151-+-Rectangle-Copy-133-+-Rectangle-Copy-138-+-Rectangle-Copy-30-+-Rectangle-Copy-51-+-Rectangle-Copy-73-+-Rectangle-Copy-85-+-Rectangle-Copy-106-+-Rectangle-Copy-107-+-Rectangle-Copy-114-+-Rectangle-Copy-124-+-Rectangle-Copy-125-+-Rectangle-Copy-115-+-Rectangle-Copy-119-+-Rectangle-Copy-116-+-Rectangle-Copy-118-+-Rectangle-Copy-5-+-Rectangle-Copy-90-+-Rectangle-Copy-28-+-Rectangle-Copy-21-+-Rectangle-Copy-16-+-Rectangle-Copy-94-+-Rectangle-Copy-104-+-Rectangle-Copy-135-+-Rectangle-Copy-136-+-Rectangle-Copy-149-+-Rectangle-Copy-150-+-Rectangle-Copy-78-+-Rectangle-Copy-86-+-Rectangle-Copy-79-+-Rectangle-Copy-109-+-Rectangle-Copy-117-+-Rectangle-Copy-54-+-Rectangle-Copy-12-+-Path-Mask">
                <mask id="mask-3" fill="white">
                    <use xlink:href="#path-2"></use>
                </mask>
                <use id="Mask" fill="#61B1A2" xlink:href="#path-2"></use>
                <rect id="Rectangle" fill="#D58266" mask="url(#mask-3)" x="57" y="275" width="24" height="24"></rect>
                <rect id="Rectangle-Copy-26" fill="#D58266" mask="url(#mask-3)" x="153" y="227" width="24" height="24"></rect>
                <rect id="Rectangle-Copy-15" fill="#D58266" mask="url(#mask-3)" x="57" y="227" width="24" height="24"></rect>
                <rect id="Rectangle-Copy-82" fill="#D58266" mask="url(#mask-3)" x="153" y="107" width="24" height="24"></rect>
                <rect id="Rectangle-Copy-110" fill="#D58266" mask="url(#mask-3)" x="129" y="35" width="24" height="24"></rect>
                <rect id="Rectangle-Copy-103" fill="#D58266" mask="url(#mask-3)" x="201" y="107" width="24" height="24"></rect>
                <rect id="Rectangle-Copy-126" fill="#D58266" mask="url(#mask-3)" x="201" y="83" width="24" height="24"></rect>
                <rect id="Rectangle-Copy-120" fill="#D58266" mask="url(#mask-3)" x="177" y="-13" width="24" height="24"></rect>
                <rect id="Rectangle-Copy-20" fill="#D58266" mask="url(#mask-3)" x="81" y="203" width="24" height="24"></rect>
                <rect id="Rectangle-Copy-169" fill="#D58266" mask="url(#mask-3)" x="-15" y="179" width="24" height="24"></rect>
                <rect id="Rectangle-Copy-27" fill="#D58266" mask="url(#mask-3)" x="105" y="203" width="24" height="24"></rect>
                <rect id="Rectangle-Copy-58" fill="#D58266" mask="url(#mask-3)" x="129" y="179" width="24" height="24"></rect>
                <rect id="Rectangle-Copy-66" fill="#D58266" mask="url(#mask-3)" x="105" y="155" width="24" height="24"></rect>
                <rect id="Rectangle-Copy-9" fill="#D58266" mask="url(#mask-3)" x="93" y="323" width="24" height="24"></rect>
                <rect id="Rectangle-Copy-14" fill="#D58266" mask="url(#mask-3)" x="129" y="251" width="24" height="24"></rect>
                <rect id="Rectangle-Copy-143" fill="#D58266" mask="url(#mask-3)" x="369" y="155" width="24" height="24"></rect>
                <rect id="Rectangle-Copy-164" fill="#D58266" mask="url(#mask-3)" x="345" y="83" width="24" height="24"></rect>
                <rect id="Rectangle-Copy-144" fill="#D58266" mask="url(#mask-3)" x="393" y="155" width="24" height="24"></rect>
                <rect id="Rectangle-Copy-36" fill="#D58266" mask="url(#mask-3)" x="201" y="251" width="24" height="24"></rect>
                <rect id="Rectangle" fill="#95CBC9" mask="url(#mask-3)" x="81" y="275" width="24" height="24"></rect>
                <rect id="Rectangle-Copy-83" fill="#95CBC9" mask="url(#mask-3)" x="57" y="107" width="24" height="24"></rect>
                <rect id="Rectangle-Copy" fill="#DFAA83" mask="url(#mask-3)" x="57" y="251" width="24" height="24"></rect>
                <rect id="Rectangle-Copy-84" fill="#DFAA83" mask="url(#mask-3)" x="33" y="107" width="24" height="24"></rect>
                <rect id="Rectangle-Copy-31" fill="#DFAA83" mask="url(#mask-3)" x="201" y="227" width="24" height="24"></rect>
                <rect id="Rectangle-Copy-69" fill="#DFAA83" mask="url(#mask-3)" x="129" y="131" width="24" height="24"></rect>
                <rect id="Rectangle-Copy-2" fill="#F6D2B3" mask="url(#mask-3)" x="81" y="251" width="24" height="24"></rect>
                <rect id="Rectangle-Copy-34" fill="#F6D2B3" mask="url(#mask-3)" x="129" y="203" width="24" height="24"></rect>
                <rect id="Rectangle-Copy-35" fill="#F6D2B3" mask="url(#mask-3)" x="249" y="203" width="24" height="24"></rect>
                <rect id="Rectangle-Copy-62" fill="#F6D2B3" mask="url(#mask-3)" x="201" y="155" width="24" height="24"></rect>
                <rect id="Rectangle-Copy-105" fill="#F6D2B3" mask="url(#mask-3)" x="249" y="131" width="24" height="24"></rect>
                <rect id="Rectangle-Copy-137" fill="#F6D2B3" mask="url(#mask-3)" x="321" y="131" width="24" height="24"></rect>
                <rect id="Rectangle-Copy-123" fill="#F6D2B3" mask="url(#mask-3)" x="177" y="35" width="24" height="24"></rect>
                <rect id="Rectangle-Copy-8" fill="#F6D2B3" mask="url(#mask-3)" x="81" y="299" width="24" height="24"></rect>
                <rect id="Rectangle-Copy-93" fill="#F6D2B3" mask="url(#mask-3)" x="141" y="323" width="24" height="24"></rect>
                <rect id="Rectangle-Copy-154" fill="#F6D2B3" mask="url(#mask-3)" x="141" y="371" width="24" height="24"></rect>
                <rect id="Rectangle-Copy-6" fill="#8EC3B6" mask="url(#mask-3)" x="69" y="347" width="24" height="24"></rect>
                <rect id="Rectangle-Copy-89" fill="#61B1A2" mask="url(#mask-3)" x="69" y="347" width="24" height="24"></rect>
                <rect id="Rectangle-Copy-33" fill="#8EC3B6" mask="url(#mask-3)" x="225" y="203" width="24" height="24"></rect>
                <rect id="Rectangle-Copy-97" fill="#8EC3B6" mask="url(#mask-3)" x="225" y="155" width="24" height="24"></rect>
                <rect id="Rectangle-Copy-139" fill="#8EC3B6" mask="url(#mask-3)" x="297" y="179" width="24" height="24"></rect>
                <rect id="Rectangle-Copy-140" fill="#8EC3B6" mask="url(#mask-3)" x="345" y="131" width="24" height="24"></rect>
                <rect id="Rectangle-Copy-42" fill="#8EC3B6" mask="url(#mask-3)" x="177" y="155" width="24" height="24"></rect>
                <rect id="Rectangle-Copy-19" fill="#8EC3B6" mask="url(#mask-3)" x="105" y="227" width="24" height="24"></rect>
                <rect id="Rectangle-Copy-52" fill="#E6898B" mask="url(#mask-3)" x="33" y="227" width="24" height="24"></rect>
                <rect id="Rectangle-Copy-48" fill="#8EC3B6" mask="url(#mask-3)" x="33" y="155" width="24" height="24"></rect>
                <rect id="Rectangle-Copy-45" fill="#8EC3B6" mask="url(#mask-3)" x="57" y="179" width="24" height="24"></rect>
                <rect id="Rectangle-Copy-64" fill="#8EC3B6" mask="url(#mask-3)" x="81" y="155" width="24" height="24"></rect>
                <rect id="Rectangle-Copy-71" fill="#8EC3B6" mask="url(#mask-3)" x="81" y="131" width="24" height="24"></rect>
                <rect id="Rectangle-Copy-113" fill="#8EC3B6" mask="url(#mask-3)" x="153" y="35" width="24" height="24"></rect>
                <rect id="Rectangle-Copy-50" fill="#BB8F9D" mask="url(#mask-3)" x="9" y="179" width="24" height="24"></rect>
                <rect id="Rectangle-Copy-23" fill="#8EC3B6" mask="url(#mask-3)" x="153" y="251" width="24" height="24"></rect>
                <rect id="Rectangle-Copy-39" fill="#8EC3B6" mask="url(#mask-3)" x="177" y="203" width="24" height="24"></rect>
                <rect id="Rectangle-Copy-41" fill="#8EC3B6" mask="url(#mask-3)" x="201" y="179" width="24" height="24"></rect>
                <rect id="Rectangle-Copy-68" fill="#8EC3B6" mask="url(#mask-3)" x="201" y="131" width="24" height="24"></rect>
                <rect id="Rectangle-Copy-112" fill="#8EC3B6" mask="url(#mask-3)" x="153" y="83" width="24" height="24"></rect>
                <rect id="Rectangle-Copy-60" fill="#8EC3B6" mask="url(#mask-3)" x="153" y="155" width="24" height="24"></rect>
                <rect id="Rectangle-Copy-10" fill="#8EC3B6" mask="url(#mask-3)" x="93" y="347" width="24" height="24"></rect>
                <rect id="Rectangle-Copy-7" fill="#8EC3B6" mask="url(#mask-3)" x="93" y="347" width="24" height="24"></rect>
                <rect id="Rectangle-Copy-88" fill="#E6898B" mask="url(#mask-3)" x="93" y="371" width="24" height="24"></rect>
                <rect id="Rectangle-Copy-55" fill="#E6898B" mask="url(#mask-3)" x="33" y="299" width="24" height="24"></rect>
                <rect id="Rectangle-Copy-46" fill="#E6898B" mask="url(#mask-3)" x="153" y="275" width="24" height="24"></rect>
                <rect id="Rectangle-Copy-11" fill="#E6898B" mask="url(#mask-3)" x="105" y="275" width="24" height="24"></rect>
                <rect id="Rectangle-Copy-32" fill="#E6898B" mask="url(#mask-3)" x="225" y="227" width="24" height="24"></rect>
                <rect id="Rectangle-Copy-95" fill="#E6898B" mask="url(#mask-3)" x="249" y="227" width="24" height="24"></rect>
                <rect id="Rectangle-Copy-134" fill="#E6898B" mask="url(#mask-3)" x="321" y="179" width="24" height="24"></rect>
                <rect id="Rectangle-Copy-160" fill="#E6898B" mask="url(#mask-3)" x="297" y="131" width="24" height="24"></rect>
                <rect id="Rectangle-Copy-100" fill="#E6898B" mask="url(#mask-3)" x="273" y="179" width="24" height="24"></rect>
                <rect id="Rectangle-Copy-145" fill="#E6898B" mask="url(#mask-3)" x="393" y="131" width="24" height="24"></rect>
                <rect id="Rectangle-Copy-161" fill="#E6898B" mask="url(#mask-3)" x="321" y="107" width="24" height="24"></rect>
                <rect id="Rectangle-Copy-165" fill="#E6898B" mask="url(#mask-3)" x="321" y="83" width="24" height="24"></rect>
                <rect id="Rectangle-Copy-147" fill="#E6898B" mask="url(#mask-3)" x="393" y="107" width="24" height="24"></rect>
                <rect id="Rectangle-Copy-37" fill="#E6898B" mask="url(#mask-3)" x="225" y="179" width="24" height="24"></rect>
                <rect id="Rectangle-Copy-61" fill="#E6898B" mask="url(#mask-3)" x="177" y="131" width="24" height="24"></rect>
                <rect id="Rectangle-Copy-43" fill="#E6898B" mask="url(#mask-3)" x="153" y="179" width="24" height="24"></rect>
                <rect id="Rectangle-Copy-44" fill="#E6898B" mask="url(#mask-3)" x="81" y="179" width="24" height="24"></rect>
                <rect id="Rectangle-Copy-49" fill="#E6898B" mask="url(#mask-3)" x="33" y="179" width="24" height="24"></rect>
                <rect id="Rectangle-Copy-156" fill="#E6898B" mask="url(#mask-3)" x="9" y="203" width="24" height="24"></rect>
                <rect id="Rectangle-Copy-63" fill="#E6898B" mask="url(#mask-3)" x="57" y="155" width="24" height="24"></rect>
                <rect id="Rectangle-Copy-72" fill="#E6898B" mask="url(#mask-3)" x="33" y="131" width="24" height="24"></rect>
                <rect id="Rectangle-Copy-168" fill="#E6898B" mask="url(#mask-3)" x="9" y="107" width="24" height="24"></rect>
                <rect id="Rectangle-Copy-70" fill="#E6898B" mask="url(#mask-3)" x="105" y="131" width="24" height="24"></rect>
                <rect id="Rectangle-Copy-81" fill="#E6898B" mask="url(#mask-3)" x="81" y="83" width="24" height="24"></rect>
                <rect id="Rectangle-Copy-111" fill="#E6898B" mask="url(#mask-3)" x="129" y="11" width="24" height="24"></rect>
                <rect id="Rectangle-Copy-166" fill="#E6898B" mask="url(#mask-3)" x="81" y="11" width="24" height="24"></rect>
                <rect id="Rectangle-Copy-121" fill="#E6898B" mask="url(#mask-3)" x="177" y="11" width="24" height="24"></rect>
                <rect id="Rectangle-Copy-122" fill="#E6898B" mask="url(#mask-3)" x="201" y="-5" width="24" height="24"></rect>
                <rect id="Rectangle-Copy-25" fill="#E6898B" mask="url(#mask-3)" x="177" y="251" width="24" height="24"></rect>
                <rect id="Rectangle-Copy-3" fill="#F2C4C2" mask="url(#mask-3)" x="57" y="299" width="24" height="24"></rect>
                <rect id="Rectangle-Copy-38" fill="#61B1A2" mask="url(#mask-3)" x="153" y="203" width="24" height="24"></rect>
                <rect id="Rectangle-Copy-99" fill="#F2C4C2" mask="url(#mask-3)" x="273" y="227" width="24" height="24"></rect>
                <rect id="Rectangle-Copy-67" fill="#F2C4C2" mask="url(#mask-3)" x="153" y="131" width="24" height="24"></rect>
                <rect id="Rectangle-Copy-142" fill="#F2C4C2" mask="url(#mask-3)" x="369" y="131" width="24" height="24"></rect>
                <rect id="Rectangle-Copy-146" fill="#F2C4C2" mask="url(#mask-3)" x="369" y="107" width="24" height="24"></rect>
                <rect id="Rectangle-Copy-80" fill="#F2C4C2" mask="url(#mask-3)" x="105" y="83" width="24" height="24"></rect>
                <rect id="Rectangle-Copy-108" fill="#F2C4C2" mask="url(#mask-3)" x="129" y="59" width="24" height="24"></rect>
                <rect id="Rectangle-Copy-151" fill="#F2C4C2" mask="url(#mask-3)" x="81" y="35" width="24" height="24"></rect>
                <rect id="Rectangle-Copy-4" fill="#61B1A2" mask="url(#mask-3)" x="69" y="323" width="24" height="24"></rect>
                <rect id="Rectangle-Copy-13" fill="#61B1A2" mask="url(#mask-3)" x="105" y="251" width="24" height="24"></rect>
                <rect id="Rectangle-Copy-53" fill="#61B1A2" mask="url(#mask-3)" x="33" y="251" width="24" height="24"></rect>
                <rect id="Rectangle-Copy-22" fill="#61B1A2" mask="url(#mask-3)" x="129" y="227" width="24" height="24"></rect>
                <rect id="Rectangle-Copy-47" fill="#61B1A2" mask="url(#mask-3)" x="129" y="275" width="24" height="24"></rect>
                <rect id="Rectangle-Copy-24" fill="#61B1A2" mask="url(#mask-3)" x="105" y="203" width="24" height="24"></rect>
                <rect id="Rectangle-Copy-59" fill="#61B1A2" mask="url(#mask-3)" x="105" y="179" width="24" height="24"></rect>
                <rect id="Rectangle-Copy-74" fill="#61B1A2" mask="url(#mask-3)" x="57" y="131" width="24" height="24"></rect>
                <rect id="Rectangle-Copy-75" fill="#61B1A2" mask="url(#mask-3)" x="81" y="107" width="24" height="24"></rect>
                <rect id="Rectangle-Copy-76" fill="#61B1A2" mask="url(#mask-3)" x="129" y="107" width="24" height="24"></rect>
                <rect id="Rectangle-Copy-77" fill="#61B1A2" mask="url(#mask-3)" x="177" y="107" width="24" height="24"></rect>
                <rect id="Rectangle-Copy-65" fill="#61B1A2" mask="url(#mask-3)" x="129" y="155" width="24" height="24"></rect>
                <rect id="Rectangle-Copy-40" fill="#61B1A2" mask="url(#mask-3)" x="177" y="179" width="24" height="24"></rect>
                <rect id="Rectangle-Copy-17" fill="#61B1A2" mask="url(#mask-3)" x="81" y="227" width="24" height="24"></rect>
                <rect id="Rectangle-Copy-18" fill="#61B1A2" mask="url(#mask-3)" x="117" y="323" width="24" height="24"></rect>
                <rect id="Rectangle-Copy-91" fill="#61B1A2" mask="url(#mask-3)" x="117" y="371" width="24" height="24"></rect>
                <rect id="Rectangle-Copy-155" fill="#61B1A2" mask="url(#mask-3)" x="141" y="395" width="24" height="24"></rect>
                <rect id="Rectangle-Copy-152" fill="#61B1A2" mask="url(#mask-3)" x="141" y="347" width="24" height="24"></rect>
                <rect id="Rectangle-Copy-87" fill="#61B1A2" mask="url(#mask-3)" x="129" y="299" width="24" height="24"></rect>
                <rect id="Rectangle-Copy-92" fill="#61B1A2" mask="url(#mask-3)" x="177" y="275" width="24" height="24"></rect>
                <rect id="Rectangle-Copy-158" fill="#61B1A2" mask="url(#mask-3)" x="177" y="299" width="24" height="24"></rect>
                <rect id="Rectangle-Copy-157" fill="#61B1A2" mask="url(#mask-3)" x="201" y="275" width="24" height="24"></rect>
                <rect id="Rectangle-Copy-56" fill="#61B1A2" mask="url(#mask-3)" x="45" y="323" width="24" height="24"></rect>
                <rect id="Rectangle-Copy-127" fill="#61B1A2" mask="url(#mask-3)" x="45" y="347" width="24" height="24"></rect>
                <rect id="Rectangle-Copy-128" fill="#61B1A2" mask="url(#mask-3)" x="69" y="395" width="24" height="24"></rect>
                <rect id="Rectangle-Copy-129" fill="#61B1A2" mask="url(#mask-3)" x="93" y="395" width="24" height="24"></rect>
                <rect id="Rectangle-Copy-130" fill="#61B1A2" mask="url(#mask-3)" x="45" y="371" width="24" height="24"></rect>
                <rect id="Rectangle-Copy-57" fill="#61B1A2" mask="url(#mask-3)" x="33" y="203" width="24" height="24"></rect>
                <rect id="Rectangle-Copy-29" fill="#61B1A2" mask="url(#mask-3)" x="201" y="203" width="24" height="24"></rect>
                <rect id="Rectangle-Copy-96" fill="#61B1A2" mask="url(#mask-3)" x="249" y="179" width="24" height="24"></rect>
                <rect id="Rectangle-Copy-101" fill="#61B1A2" mask="url(#mask-3)" x="249" y="155" width="24" height="24"></rect>
                <rect id="Rectangle-Copy-102" fill="#61B1A2" mask="url(#mask-3)" x="225" y="131" width="24" height="24"></rect>
                <rect id="Rectangle-Copy-98" fill="#61B1A2" mask="url(#mask-3)" x="273" y="203" width="24" height="24"></rect>
                <rect id="Rectangle-Copy-131" fill="#61B1A2" mask="url(#mask-3)" x="297" y="203" width="24" height="24"></rect>
                <rect id="Rectangle-Copy-132" fill="#61B1A2" mask="url(#mask-3)" x="345" y="179" width="24" height="24"></rect>
                <rect id="Rectangle-Copy-148" fill="#61B1A2" mask="url(#mask-3)" x="369" y="179" width="24" height="24"></rect>
                <rect id="Rectangle-Copy-141" fill="#61B1A2" mask="url(#mask-3)" x="345" y="155" width="24" height="24"></rect>
                <rect id="Rectangle-Copy-163" fill="#61B1A2" mask="url(#mask-3)" x="345" y="107" width="24" height="24"></rect>
                <rect id="Rectangle-Copy-162" fill="#61B1A2" mask="url(#mask-3)" x="369" y="83" width="24" height="24"></rect>
                <rect id="Rectangle-Copy-133" fill="#61B1A2" mask="url(#mask-3)" x="273" y="131" width="24" height="24"></rect>
                <rect id="Rectangle-Copy-159" fill="#61B1A2" mask="url(#mask-3)" x="266" y="107" width="24" height="24"></rect>
                <rect id="Rectangle-Copy-138" fill="#61B1A2" mask="url(#mask-3)" x="297" y="155" width="24" height="24"></rect>
                <rect id="Rectangle-Copy-30" fill="#61B1A2" mask="url(#mask-3)" x="57" y="203" width="24" height="24"></rect>
                <rect id="Rectangle-Copy-51" fill="#61B1A2" mask="url(#mask-3)" x="9" y="155" width="24" height="24"></rect>
                <rect id="Rectangle-Copy-170" fill="#61B1A2" mask="url(#mask-3)" x="-15" y="155" width="24" height="24"></rect>
                <rect id="Rectangle-Copy-73" fill="#61B1A2" mask="url(#mask-3)" x="9" y="131" width="24" height="24"></rect>
                <rect id="Rectangle-Copy-85" fill="#61B1A2" mask="url(#mask-3)" x="33" y="83" width="24" height="24"></rect>
                <rect id="Rectangle-Copy-106" fill="#61B1A2" mask="url(#mask-3)" x="81" y="59" width="24" height="24"></rect>
                <rect id="Rectangle-Copy-107" fill="#61B1A2" mask="url(#mask-3)" x="105" y="59" width="24" height="24"></rect>
                <rect id="Rectangle-Copy-114" fill="#61B1A2" mask="url(#mask-3)" x="153" y="59" width="24" height="24"></rect>
                <rect id="Rectangle-Copy-124" fill="#61B1A2" mask="url(#mask-3)" x="177" y="59" width="24" height="24"></rect>
                <rect id="Rectangle-Copy-125" fill="#61B1A2" mask="url(#mask-3)" x="177" y="83" width="24" height="24"></rect>
                <rect id="Rectangle-Copy-115" fill="#61B1A2" mask="url(#mask-3)" x="153" y="11" width="24" height="24"></rect>
                <rect id="Rectangle-Copy-119" fill="#61B1A2" mask="url(#mask-3)" x="153" y="-13" width="24" height="24"></rect>
                <rect id="Rectangle-Copy-116" fill="#61B1A2" mask="url(#mask-3)" x="105" y="11" width="24" height="24"></rect>
                <rect id="Rectangle-Copy-118" fill="#61B1A2" mask="url(#mask-3)" x="105" y="-13" width="24" height="24"></rect>
                <rect id="Rectangle-Copy-5" fill="#BB8F9D" mask="url(#mask-3)" x="69" y="323" width="24" height="24"></rect>
                <rect id="Rectangle-Copy-90" fill="#BB8F9D" mask="url(#mask-3)" x="117" y="347" width="24" height="24"></rect>
                <rect id="Rectangle-Copy-90" fill="#BB8F9D" mask="url(#mask-3)" x="117" y="395" width="24" height="24"></rect>
                <rect id="Rectangle-Copy-167" fill="#BB8F9D" mask="url(#mask-3)" x="111" y="419" width="24" height="24"></rect>
                <rect id="Rectangle-Copy-28" fill="#BB8F9D" mask="url(#mask-3)" x="177" y="227" width="24" height="24"></rect>
                <rect id="Rectangle-Copy-21" fill="#BB8F9D" mask="url(#mask-3)" x="81" y="227" width="24" height="24"></rect>
                <rect id="Rectangle-Copy-16" fill="#BB8F9D" mask="url(#mask-3)" x="105" y="299" width="24" height="24"></rect>
                <rect id="Rectangle-Copy-153" fill="#BB8F9D" mask="url(#mask-3)" x="153" y="299" width="24" height="24"></rect>
                <rect id="Rectangle-Copy-94" fill="#BB8F9D" mask="url(#mask-3)" x="225" y="251" width="24" height="24"></rect>
                <rect id="Rectangle-Copy-104" fill="#BB8F9D" mask="url(#mask-3)" x="273" y="155" width="24" height="24"></rect>
                <rect id="Rectangle-Copy-135" fill="#BB8F9D" mask="url(#mask-3)" x="321" y="155" width="24" height="24"></rect>
                <rect id="Rectangle-Copy-136" fill="#BB8F9D" mask="url(#mask-3)" x="321" y="203" width="24" height="24"></rect>
                <rect id="Rectangle-Copy-149" fill="#BB8F9D" mask="url(#mask-3)" x="345" y="203" width="24" height="24"></rect>
                <rect id="Rectangle-Copy-150" fill="#BB8F9D" mask="url(#mask-3)" x="329" y="227" width="24" height="24"></rect>
                <rect id="Rectangle-Copy-78" fill="#BB8F9D" mask="url(#mask-3)" x="105" y="107" width="24" height="24"></rect>
                <rect id="Rectangle-Copy-86" fill="#BB8F9D" mask="url(#mask-3)" x="57" y="83" width="24" height="24"></rect>
                <rect id="Rectangle-Copy-79" fill="#61B1A2" mask="url(#mask-3)" x="129" y="83" width="24" height="24"></rect>
                <rect id="Rectangle-Copy-109" fill="#BB8F9D" mask="url(#mask-3)" x="105" y="35" width="24" height="24"></rect>
                <rect id="Rectangle-Copy-117" fill="#BB8F9D" mask="url(#mask-3)" x="129" y="-13" width="24" height="24"></rect>
                <rect id="Rectangle-Copy-54" fill="#BB8F9D" mask="url(#mask-3)" x="33" y="275" width="24" height="24"></rect>
                <rect id="Rectangle-Copy-12" fill="#BB8F9D" mask="url(#mask-3)" x="69" y="371" width="24" height="24"></rect>
                <mask id="mask-5" fill="white">
                    <use xlink:href="#path-4"></use>
                </mask>
                <g id="Mask"></g>
            </g>
        </g>
    </g>
</svg>