
<svg width="80px" height="64px" viewBox="0 0 80 64" version="1.1" xmlns="http://www.w3.org/2000/svg" xmlns:xlink="http://www.w3.org/1999/xlink">
    <!-- Generator: Sketch 50 (54983) - http://www.bohemiancoding.com/sketch -->
    <desc>Created with Sketch.</desc>
    <defs>
        <filter x="-14.0%" y="-16.3%" width="127.9%" height="136.5%" filterUnits="objectBoundingBox" id="filter-1">
            <feOffset dx="0" dy="1" in="SourceAlpha" result="shadowOffsetOuter1"></feOffset>
            <feGaussianBlur stdDeviation="3" in="shadowOffsetOuter1" result="shadowBlurOuter1"></feGaussianBlur>
            <feColorMatrix values="0 0 0 0 0   0 0 0 0 0   0 0 0 0 0  0 0 0 0.5 0" type="matrix" in="shadowBlurOuter1" result="shadowMatrixOuter1"></feColorMatrix>
            <feMerge>
                <feMergeNode in="shadowMatrixOuter1"></feMergeNode>
                <feMergeNode in="SourceGraphic"></feMergeNode>
            </feMerge>
        </filter>
        <path d="M0.00160890182,3.63311172 C0.000543972732,3.59772515 0,3.56280744 0,3.52838109 C0,1.12425344 1.42648843,0 3.72101805,0 C22.2470408,0 31.1998691,22.3477015 31.2,22.3475683 L31.2,23.9515924 L31.2,24.7 L33.8,24.7 C33.8,24.7 33.8,31.8568489 33.8,34.193844 C33.8,38.0643928 31.6244686,43.9312353 30.4024019,45.6351398 C28.8775762,47.7614135 27.5425397,46.5603547 25.5871,49.2380513 C24.0440663,51.3510888 22.0673617,52.7435439 19.7207808,51.5750464 C19.7207808,51.5750464 16.298861,52.4027101 15.0277521,49.2380513 C15.0277521,49.2380513 12.29027,47.9797495 11.5538269,44.163479 C11.4974633,44.1879615 11.468266,44.2 11.468266,44.2 C11.468266,44.2 7.7516012,39.9857229 7.80047788,35.6994966 C7.79411111,35.1480312 7.8510812,34.594445 7.98827542,34.047848 C8.47366084,32.1140184 10.5658259,30.1802115 12.8520939,28.5774474 C9.67350582,28.6730058 7.05668196,28.478396 6.03219811,27.7333701 C2.56538599,25.2122325 4.87655043,16.387894 1.40973831,8.82419571 C0.468778243,6.7711572 0,5.04241795 0,3.78163496 C0,3.7316106 0.00053766275,3.68210326 0.00160890182,3.63311172 Z M63.7797565,0.000214696312 C63.8127933,7.16620289e-05 63.8458606,1.12656452e-08 63.8789585,1.32836799e-12 C66.1736337,2.54943541e-06 67.6,1.12412293 67.6,3.52838109 C67.5999936,3.53347956 67.6,3.53858374 67.6,3.54369368 C67.6,3.56740077 67.5998112,3.59128443 67.5994337,3.61534357 C67.599811,3.64344295 67.6,3.67171291 67.6,3.7001537 C67.6,4.91714405 67.1202801,6.58278608 66.1662948,8.55609892 C66.1449076,8.52153147 66.1233512,8.48719171 66.1016274,8.45307964 C62.7629825,15.4993128 65.0046398,23.6462998 61.5678019,25.9883805 C60.3351391,26.8284432 56.7972469,27.1737949 52.7492617,27.2700316 C52.9395762,27.3879685 53.1315197,27.5090295 53.3242474,27.6330118 C56.1051374,29.3844023 59.026431,31.7161087 59.6116898,34.047848 C59.7489094,34.5944694 59.8058896,35.1480847 59.7995221,35.6995812 C59.8484008,39.9856931 56.1317048,44.2 56.1317048,44.2 C56.1317048,44.2 56.1025073,44.1879613 56.0461433,44.1634786 C55.3097012,47.9797494 52.5722226,49.2380513 52.5722226,49.2380513 C51.3011154,52.4027101 47.8792002,51.5750464 47.8792002,51.5750464 C45.5326225,52.7435439 43.5559206,51.3510888 42.0128889,49.2380513 C41.0531583,47.9238349 40.2428737,47.5439552 39.4862487,47.2464584 C38.674141,46.9894484 37.911063,46.6857938 37.2507327,45.7734233 C36.0095056,44.0581307 33.8,38.1526691 33.8,34.256554 L33.8,34.193844 L33.8,24.7 L35.1,24.7 L35.1,23.4356574 C35.1,23.4356574 44.425902,0 63.7240596,0 C63.7426802,0 63.761246,7.15396542e-05 63.7797565,0.000214696313 Z M36.4,24.4858056 C36.3661538,24.5575839 36.3326741,24.6289863 36.2995595,24.7 L36.4,24.7 L36.4,24.4858056 Z" id="path-2"></path>
    </defs>
    <g id="Page-1" stroke="none" stroke-width="1" fill="none" fill-rule="evenodd">
        <g id="Group-4" filter="url(#filter-1)" transform="translate(6.000000, 5.000000)">
            <mask id="mask-3" fill="white">
                <use xlink:href="#path-2"></use>
            </mask>
            <use id="Mask" fill="#6EB4F0" fill-rule="nonzero" xlink:href="#path-2"></use>
            <g mask="url(#mask-3)">
                <g transform="translate(-4.000000, -18.000000)">
                    <rect id="Rectangle-Copy-197" fill="#F6D2B3" x="0" y="24" width="24" height="24"></rect>
                    <rect id="Rectangle-Copy-201" fill="#F6D2B3" x="24" y="48" width="24" height="24"></rect>
                    <rect id="Rectangle-Copy-174" fill="#8EC3B6" x="0" y="48" width="24" height="24"></rect>
                    <rect id="Rectangle-Copy-195" fill="#D58266" x="24" y="24" width="24" height="24"></rect>
                    <rect id="Rectangle-Copy-196" fill="#BB8F9D" x="48" y="48" width="24" height="24"></rect>
                    <rect id="Rectangle-Copy-200" fill="#BB8F9D" x="48" y="0" width="24" height="24"></rect>
                    <rect id="Rectangle-Copy-198" fill="#DFAA83" x="24" y="0" width="24" height="24"></rect>
                    <rect id="Rectangle-Copy-199" fill="#61B1A2" x="48" y="24" width="24" height="24"></rect>
                    <rect id="Rectangle-Copy-202" fill="#61B1A2" x="0" y="0" width="24" height="24"></rect>
                </g>
            </g>
        </g>
    </g>
</svg>